<?xml version="1.0" encoding="UTF-8"?>
<svg xmlns="http://www.w3.org/2000/svg" xmlns:xlink="http://www.w3.org/1999/xlink" width="448.34pt" height="672.12pt" viewBox="0 0 448.34 672.12" version="1.1">
<defs>
<clipPath id="clip1">
  <path d="M 0 0 L 448.339844 0 L 448.339844 672.121094 L 0 672.121094 Z M 0 0 "/>
</clipPath>
</defs>
<g id="surface1">
<path style=" stroke:none;fill-rule:nonzero;fill:rgb(16.899109%,51.399231%,71.798706%);fill-opacity:1;" d="M 23.472656 0.578125 L 424.800781 0.578125 C 440.136719 0.578125 447.769531 9.507813 447.769531 27.433594 L 447.769531 644.691406 C 447.769531 662.546875 440.136719 671.546875 424.800781 671.546875 L 23.472656 671.546875 C 8.207031 671.546875 0.574219 662.546875 0.574219 644.691406 L 0.574219 27.433594 C 0.574219 9.507813 8.207031 0.578125 23.472656 0.578125 "/>
<g clip-path="url(#clip1)" clip-rule="nonzero">
<path style="fill:none;stroke-width:11.52;stroke-linecap:butt;stroke-linejoin:miter;stroke:rgb(100%,100%,100%);stroke-opacity:1;stroke-miterlimit:2.6131;" d="M 234.726563 6715.41875 L 4248.007813 6715.41875 C 4401.367188 6715.41875 4477.695313 6626.121875 4477.695313 6446.864062 L 4477.695313 274.285937 C 4477.695313 95.73125 4401.367188 5.73125 4248.007813 5.73125 L 234.726563 5.73125 C 82.070313 5.73125 5.742188 95.73125 5.742188 274.285937 L 5.742188 6446.864062 C 5.742188 6626.121875 82.070313 6715.41875 234.726563 6715.41875 Z M 234.726563 6715.41875 " transform="matrix(0.1,0,0,-0.1,0,672.12)"/>
</g>
<path style=" stroke:none;fill-rule:nonzero;fill:rgb(100%,100%,100%);fill-opacity:1;" d="M 52.632813 52.417969 L 395.640625 52.417969 L 395.640625 394.417969 L 52.632813 394.417969 L 52.632813 52.417969 "/>
<path style=" stroke:none;fill-rule:nonzero;fill:rgb(13.699341%,12.199402%,12.5%);fill-opacity:1;" d="M 130.535156 170.28125 L 119.160156 170.28125 C 115.558594 170.28125 112.320313 167.257813 112.320313 163.371094 L 112.320313 102.890625 C 112.320313 99.003906 115.269531 95.976563 119.160156 95.976563 L 233.351563 95.976563 C 237.023438 95.976563 240.191406 99.003906 240.191406 102.890625 L 240.191406 111.675781 L 258.550781 111.675781 L 258.550781 76.105469 L 93.3125 76.105469 L 93.3125 187.417969 L 109.007813 187.417969 L 109.007813 321.339844 L 145.582031 321.339844 L 145.582031 237.171875 L 130.535156 237.171875 L 130.535156 170.28125 "/>
<path style=" stroke:none;fill-rule:nonzero;fill:rgb(4.299927%,65.499878%,58.799744%);fill-opacity:1;" d="M 358.988281 331.777344 L 330.40625 160.128906 C 330.40625 160.128906 330.40625 145.585938 309.023438 146.953125 L 309.023438 162.433594 L 314.425781 162.433594 L 342.574219 332.066406 C 342.574219 339.554688 336.742188 345.675781 328.96875 345.675781 C 321.480469 345.675781 315.359375 339.554688 315.359375 332.066406 L 315.574219 272.449219 C 315.574219 256.035156 318.167969 234.21875 286.988281 234.21875 L 286.988281 229.320313 L 302.472656 229.320313 L 302.472656 119.738281 L 137.589844 119.738281 L 137.589844 229.753906 L 152.78125 229.753906 L 152.78125 360.433594 L 286.773438 360.433594 L 286.773438 250.417969 C 297.503906 249.699219 299.15625 251.785156 299.15625 262.152344 L 299.15625 332.066406 C 299.15625 348.480469 312.550781 361.800781 328.96875 361.800781 C 345.601563 361.800781 358.988281 348.480469 358.988281 331.777344 Z M 164.734375 136.65625 L 275.472656 136.65625 C 279.9375 136.65625 283.246094 140.1875 283.246094 144.867188 L 283.246094 201.816406 C 283.246094 206.570313 279.9375 210.027344 275.472656 210.027344 L 164.734375 210.027344 C 160.34375 210.027344 157.03125 206.570313 157.03125 201.816406 L 157.03125 144.867188 C 157.03125 140.1875 160.34375 136.65625 164.734375 136.65625 "/>
</g>
</svg>
